# xmcd CD database file
#
# Track frame offsets:
#	150
#	20246
#	57580
#	144979
#
# Disc length: 1953 seconds
#
# Revision: 0
# Processed by: cddbd v1.5.2PL0 Copyright (c) Steve Scherf et al.
# Submitted via: CDex 1.70beta2
#
DISCID=37079f04
DTITLE=Scorch - Brolt! - Disc 2
DYEAR=2008
DGENRE=Jazz
TTITLE0=Bølt
TTITLE1=Brolt
TTITLE2=Rått Og Råde
TTITLE3=Hærråde
EXTD=YEAR: 2008
EXTT0=
EXTT1=
EXTT2=
EXTT3=
PLAYORDER=
